<?xml version="1.0" encoding="utf-8"?>
<!-- Generator: Adobe Illustrator 16.0.0, SVG Export Plug-In . SVG Version: 6.00 Build 0)  -->
<!DOCTYPE svg PUBLIC "-//W3C//DTD SVG 1.1//EN" "http://www.w3.org/Graphics/SVG/1.1/DTD/svg11.dtd">
<svg version="1.1" xmlns="http://www.w3.org/2000/svg" xmlns:xlink="http://www.w3.org/1999/xlink" x="0px" y="0px"
	 width="813.875px" height="226px" viewBox="0 0 813.875 226" enable-background="new 0 0 813.875 226" xml:space="preserve">
<g id="Layer_2">
	<g>
		<path fill-rule="evenodd" clip-rule="evenodd" fill="#FFFFFF" d="M734.967,88.941c9.432,0,18.303,0,27.178,0
			c6.643-0.001,6.854,0.199,6.855,6.66c0.006,33.992,0.012,67.981,0.01,101.973c0,5.423-0.611,6.022-6.051,6.022
			c-25.338,0.005-50.674,0-76.01-0.01c-5.568,0-5.869-0.32-5.879-6.058c-0.012-5.14,0.096-10.288-0.1-15.42
			c-0.037-1.006-1.215-2.797-1.9-2.812c-8.484-0.193-16.971-0.127-25.951-0.127c1.066,6.479,1.83,12.425,3.186,18.233
			c0.275,1.176,2.781,1.861,4.301,2.703c1.496,0.83,3.047,1.564,4.574,2.344c-1.678,0.379-3.354,1.084-5.033,1.086
			c-20.82,0.078-41.641,0.053-62.461,0.05c-1.002,0-2.02,0.073-3.002-0.083c-0.512-0.081-0.951-0.589-1.428-0.901
			c0.375-0.545,0.721-1.111,1.139-1.62c0.133-0.163,0.463-0.218,0.703-0.222c6.506-0.186,7.975-4.384,8.291-9.907
			c0.215-3.697,1.104-7.357,1.795-11.716c-1.881,0-3.324,0-4.771,0c-23.076,0.012-46.156,0.026-69.232,0.03
			c-6.521,0-7.855-1.361-7.855-7.979c-0.004-43.396-0.004-86.791,0-130.188c0-6.537,1.361-7.889,7.92-7.888
			c65.348,0.005,130.691,0.012,196.041,0.02c6.318,0.001,7.664,1.335,7.674,7.769c0.021,14.298,0.008,28.596,0.008,42.895
			C734.967,85.291,734.967,86.785,734.967,88.941z M535.133,151.216c0.84,0.152,1.205,0.273,1.572,0.273
			c47.139,0.025,94.279,0.03,141.418,0.097c2.371,0.004,2.998-0.958,2.973-3.133c-0.082-6.896-0.031-13.794-0.029-20.688
			c0-11.408,0.063-22.816-0.035-34.226c-0.027-3.381,1.295-4.81,4.701-4.634c3.252,0.168,6.518,0.036,9.777,0.036
			c9.008,0,18.02,0,27.34,0c0-15.052,0-29.76,0-44.569c-62.697,0-125.154,0-187.717,0
			C535.133,80.152,535.133,115.577,535.133,151.216z M690.309,98.042c-0.119,1.071-0.252,1.687-0.252,2.302
			c-0.014,29.217,0.033,58.434-0.078,87.651c-0.014,3.257,1.643,3.244,3.98,3.24c20.689-0.044,41.379-0.026,62.068-0.04
			c1.105,0,2.215-0.107,3.605-0.178c0-31.079,0-61.95,0-92.976C736.41,98.042,713.518,98.042,690.309,98.042z M634.045,165.649
			c-0.025-2.736-2.344-5.007-5.08-4.818c-2.934,0.204-4.516,2.015-4.781,4.807c-0.244,2.557,2.355,5.081,4.945,5.11
			C631.734,170.775,634.074,168.353,634.045,165.649z M725.375,200.944c2.25,0.056,2.832-1.871,2.773-2.701
			c-0.135-1.909-1.383-2.61-2.52-2.793c-0.645-0.101-2.813,0.384-2.82,2.906C722.807,199.266,723.417,201.125,725.375,200.944z"/>
		<path fill-rule="evenodd" clip-rule="evenodd" fill="#FFFFFF" d="M804.617,177.224c0.006,7.144-0.117,14.294,0.057,21.433
			c0.086,3.505-1.107,5.09-4.744,4.997c-5.887-0.149-11.781-0.116-17.67-0.019c-3.283,0.056-4.785-1.172-4.76-4.641
			c0.104-14.79,0.107-29.58,0.016-44.375c-0.023-3.463,1.525-4.691,4.779-4.646c5.893,0.079,11.783,0.079,17.676-0.007
			c3.291-0.049,4.762,1.241,4.689,4.694C804.504,162.178,804.611,169.703,804.617,177.224z M780.602,157.75
			c-0.275,0.734-0.518,1.083-0.52,1.432c-0.045,11.148-0.119,22.297,0.016,33.44c0.01,0.775,1.602,2.159,2.496,2.192
			c5.629,0.201,11.275,0.216,16.906-0.018c0.934-0.042,2.574-1.603,2.59-2.485c0.184-10.644,0.166-21.295,0.043-31.943
			c-0.012-0.88-1.156-2.488-1.811-2.507C793.715,157.676,787.1,157.75,780.602,157.75z M793.928,199
			c-0.344-1.712-1.312-1.802-2.018-1.979c-0.778-0.195-2.347,0.328-2.347,1.995c-0.226,1.327,1.445,2.16,2.347,2.108
			C793.417,201.038,793.75,200.125,793.928,199z"/>
	</g>
	<polygon fill="#D24D6D" points="575.692,89.666 600.359,60.424 649.692,60.424 674.358,89.666 	"/>
	<polygon fill="#D24D6D" points="575.688,89.593 674.361,89.554 624.715,138.909 	"/>
	<polygon fill="#9B243E" points="625.271,138.697 590.199,88.861 656.018,88.945 	"/>
	<polygon fill="#AC2E4E" points="590.199,88.861 656.018,88.945 625.024,60.424 	"/>
	<polygon fill="#B93A5C" points="600.359,60.424 590.199,88.861 624.715,138.909 575.688,89.593 	"/>
	<polygon fill="#B93A5C" points="649.692,60.424 656.018,88.945 625.271,138.697 674.361,89.554 	"/>
	<polygon fill="#D24D6D" points="698.544,134.053 710.918,119.386 735.667,119.386 748.043,134.053 	"/>
	<polygon fill="#D24D6D" points="698.544,134.015 748.044,133.997 723.139,158.755 	"/>
	<polygon fill="#9B243E" points="723.417,158.651 705.823,133.651 738.84,133.69 	"/>
	<polygon fill="#AC2E4E" points="705.823,133.651 738.84,133.69 723.292,119.386 	"/>
	<polygon fill="#B93A5C" points="710.918,119.386 705.823,133.651 723.139,158.755 698.544,134.015 	"/>
	<polygon fill="#B93A5C" points="735.667,119.386 738.84,133.69 723.417,158.651 748.044,133.997 	"/>
	<polygon fill="#D24D6D" points="782.638,172.949 787.251,167.479 796.476,167.479 801.091,172.949 	"/>
	<polygon fill="#D24D6D" points="782.638,172.933 801.091,172.929 791.809,182.158 	"/>
	<polygon fill="#9B243E" points="791.91,182.118 785.352,172.798 797.661,172.813 	"/>
	<polygon fill="#AC2E4E" points="785.352,172.798 797.661,172.813 791.863,167.479 	"/>
	<polygon fill="#B93A5C" points="787.251,167.479 785.352,172.798 791.809,182.158 782.638,172.933 	"/>
	<polygon fill="#B93A5C" points="796.476,167.479 797.661,172.813 791.91,182.118 801.091,172.929 	"/>
</g>
<g id="Layer_1">
	<text transform="matrix(1 0 0 1 11.0005 140.8105)" fill="#FFFFFF" font-family="'AgencyFB-Reg'" font-size="161.4051">IndisStyle</text>
	<text transform="matrix(1 0 0 1 18.5967 207.2715)" fill="#FFFFFF" font-family="'AgencyFB-Reg'" font-size="53.1688">Brukeropplevelsen i sentrum</text>
	<rect x="784" y="-170" fill="none" stroke="#000000" stroke-width="4" stroke-miterlimit="10" width="94" height="79"/>
	<rect x="806" y="-83.5" width="52" height="5.25"/>
	<rect x="727" y="-170.375" width="42" height="91.75"/>
	<circle fill="#FFFFFF" cx="748" cy="-87" r="3.833"/>
	<rect x="723.334" y="-98.666" fill="#FFFFFF" width="47.333" height="4.666"/>
	<rect x="734.334" y="-159.666" fill="#FFFFFF" width="28.666" height="7"/>
	<rect x="734.334" y="-148" fill="#FFFFFF" width="28.666" height="7"/>
	<rect x="788.375" y="-263" fill="#D54C7E" width="8.5" height="66.667"/>
	<rect x="797.5" y="-263" fill="#BD3883" width="8.5" height="66.667"/>
	<rect x="831" y="-263.001" fill="#AACA53" width="8.5" height="66.667"/>
	<rect x="822.375" y="-262.833" fill="#3AA65B" width="8.5" height="66.667"/>
	<rect x="813.875" y="-263" fill="#2A92A0" width="8.5" height="66.667"/>
	<rect x="805.375" y="-262.833" fill="#2DAABA" width="8.5" height="66.667"/>
	<rect x="863.459" y="-263" fill="#4E3894" width="8.5" height="66.667"/>
	<rect x="851.625" y="-262.833" fill="#664198" width="8.5" height="66.667"/>
	<rect x="847.375" y="-263" fill="#DD7E46" width="8.5" height="66.667"/>
	<rect x="838.875" y="-262.833" fill="#F0CE44" width="8.5" height="66.667"/>
	<text transform="matrix(1 0 0 1 -208 -178)" font-family="'MyriadPro-Regular'" font-size="12">http://www.psdgraphics.com/wp-content/uploads/2009/12/color-wheel.jpg</text>
	<rect id="_x3C_Slice_x3E__1_" x="91" y="-144" fill="none" width="81" height="75"/>
	<rect id="_x3C_Slice_x3E_" x="94" y="-143" fill="none" width="73" height="69"/>
</g>
</svg>
